<mxfile host="app.diagrams.net" agent="Mozilla/5.0 (Windows NT 10.0; Win64; x64) AppleWebKit/537.36 (KHTML, like Gecko) Chrome/128.0.0.0 Safari/537.36 Edg/128.0.0.0" version="24.7.8">
  <diagram name="Page-1" id="ypD8NCnD7637zYtyradc">
    <mxGraphModel dx="3397" dy="2643" grid="1" gridSize="10" guides="1" tooltips="1" connect="1" arrows="1" fold="1" page="1" pageScale="1" pageWidth="850" pageHeight="1100" math="0" shadow="0">
      <root>
        <mxCell id="0" />
        <mxCell id="1" parent="0" />
        <mxCell id="bE4z1JiZct7uWbAWUFVs-1" value="&lt;font style=&quot;font-size: 36px;&quot;&gt;Mattermost Email Notification Flow Chart&lt;/font&gt;" style="text;html=1;align=center;verticalAlign=middle;whiteSpace=wrap;rounded=0;fillColor=none;fontStyle=1;fontColor=#666666;" vertex="1" parent="1">
          <mxGeometry x="150" y="-1060" width="560" height="30" as="geometry" />
        </mxCell>
        <mxCell id="bE4z1JiZct7uWbAWUFVs-2" style="edgeStyle=orthogonalEdgeStyle;rounded=0;orthogonalLoop=1;jettySize=auto;html=1;entryX=0.5;entryY=0;entryDx=0;entryDy=0;" edge="1" parent="1" source="bE4z1JiZct7uWbAWUFVs-4" target="bE4z1JiZct7uWbAWUFVs-14">
          <mxGeometry relative="1" as="geometry" />
        </mxCell>
        <mxCell id="bE4z1JiZct7uWbAWUFVs-3" value="No" style="edgeLabel;html=1;align=center;verticalAlign=middle;resizable=0;points=[];" vertex="1" connectable="0" parent="bE4z1JiZct7uWbAWUFVs-2">
          <mxGeometry x="-0.2188" relative="1" as="geometry">
            <mxPoint as="offset" />
          </mxGeometry>
        </mxCell>
        <mxCell id="bE4z1JiZct7uWbAWUFVs-4" value="" style="rhombus;whiteSpace=wrap;html=1;strokeColor=#3CAADE;" vertex="1" parent="1">
          <mxGeometry x="130" y="-870" width="140" height="80" as="geometry" />
        </mxCell>
        <mxCell id="bE4z1JiZct7uWbAWUFVs-5" value="" style="group;rounded=1;glass=0;" vertex="1" connectable="0" parent="1">
          <mxGeometry x="40" y="-972" width="320" height="62" as="geometry" />
        </mxCell>
        <mxCell id="bE4z1JiZct7uWbAWUFVs-6" value="" style="rounded=0;whiteSpace=wrap;html=1;fontColor=#858585;strokeColor=#666666;fillColor=#666666;" vertex="1" parent="bE4z1JiZct7uWbAWUFVs-5">
          <mxGeometry y="2" width="320" height="60" as="geometry" />
        </mxCell>
        <mxCell id="bE4z1JiZct7uWbAWUFVs-7" value="Message is posted" style="text;html=1;align=center;verticalAlign=middle;whiteSpace=wrap;rounded=0;fontColor=#ffffff;" vertex="1" parent="bE4z1JiZct7uWbAWUFVs-5">
          <mxGeometry x="94" width="130" height="30" as="geometry" />
        </mxCell>
        <mxCell id="bE4z1JiZct7uWbAWUFVs-8" value="Should a desktop notification be triggered?" style="text;html=1;align=center;verticalAlign=middle;whiteSpace=wrap;rounded=0;fontColor=#FFFFFF;fontStyle=1" vertex="1" parent="bE4z1JiZct7uWbAWUFVs-5">
          <mxGeometry x="10" y="29" width="300" height="30" as="geometry" />
        </mxCell>
        <mxCell id="bE4z1JiZct7uWbAWUFVs-9" value="Is the user&lt;br&gt;&lt;b&gt;Online &lt;/b&gt;or&lt;b&gt;&amp;nbsp;Do Not Disturb&lt;/b&gt;?" style="text;html=1;align=center;verticalAlign=middle;whiteSpace=wrap;rounded=0;" vertex="1" parent="1">
          <mxGeometry x="145" y="-846" width="110" height="30" as="geometry" />
        </mxCell>
        <mxCell id="bE4z1JiZct7uWbAWUFVs-10" style="edgeStyle=orthogonalEdgeStyle;rounded=0;orthogonalLoop=1;jettySize=auto;html=1;entryX=0.5;entryY=0;entryDx=0;entryDy=0;" edge="1" parent="1" source="bE4z1JiZct7uWbAWUFVs-14" target="bE4z1JiZct7uWbAWUFVs-20">
          <mxGeometry relative="1" as="geometry" />
        </mxCell>
        <mxCell id="bE4z1JiZct7uWbAWUFVs-11" value="No" style="edgeLabel;html=1;align=center;verticalAlign=middle;resizable=0;points=[];" vertex="1" connectable="0" parent="bE4z1JiZct7uWbAWUFVs-10">
          <mxGeometry x="-0.2766" relative="1" as="geometry">
            <mxPoint as="offset" />
          </mxGeometry>
        </mxCell>
        <mxCell id="bE4z1JiZct7uWbAWUFVs-12" style="edgeStyle=orthogonalEdgeStyle;rounded=0;orthogonalLoop=1;jettySize=auto;html=1;entryX=0.5;entryY=0;entryDx=0;entryDy=0;" edge="1" parent="1" source="bE4z1JiZct7uWbAWUFVs-14" target="bE4z1JiZct7uWbAWUFVs-127">
          <mxGeometry relative="1" as="geometry" />
        </mxCell>
        <mxCell id="bE4z1JiZct7uWbAWUFVs-13" value="Yes" style="edgeLabel;html=1;align=center;verticalAlign=middle;resizable=0;points=[];" vertex="1" connectable="0" parent="bE4z1JiZct7uWbAWUFVs-12">
          <mxGeometry x="-0.9366" y="1" relative="1" as="geometry">
            <mxPoint as="offset" />
          </mxGeometry>
        </mxCell>
        <mxCell id="bE4z1JiZct7uWbAWUFVs-14" value="" style="rhombus;whiteSpace=wrap;html=1;strokeColor=#047D7E;" vertex="1" parent="1">
          <mxGeometry x="130" y="-741" width="140" height="80" as="geometry" />
        </mxCell>
        <mxCell id="bE4z1JiZct7uWbAWUFVs-15" value="Is the &lt;b&gt;channel muted&lt;/b&gt;?" style="text;html=1;align=center;verticalAlign=middle;whiteSpace=wrap;rounded=0;" vertex="1" parent="1">
          <mxGeometry x="146" y="-715" width="110" height="30" as="geometry" />
        </mxCell>
        <mxCell id="bE4z1JiZct7uWbAWUFVs-20" value="" style="rhombus;whiteSpace=wrap;html=1;strokeColor=#1462C2;" vertex="1" parent="1">
          <mxGeometry x="130" y="-610" width="140" height="80" as="geometry" />
        </mxCell>
        <mxCell id="bE4z1JiZct7uWbAWUFVs-209" style="edgeStyle=orthogonalEdgeStyle;rounded=0;orthogonalLoop=1;jettySize=auto;html=1;entryX=0.5;entryY=0;entryDx=0;entryDy=0;exitX=1;exitY=0.5;exitDx=0;exitDy=0;" edge="1" parent="1" source="bE4z1JiZct7uWbAWUFVs-20" target="bE4z1JiZct7uWbAWUFVs-176">
          <mxGeometry relative="1" as="geometry">
            <mxPoint x="290" y="-570" as="sourcePoint" />
            <Array as="points">
              <mxPoint x="1590" y="-570" />
              <mxPoint x="1590" y="140" />
              <mxPoint x="669" y="140" />
            </Array>
          </mxGeometry>
        </mxCell>
        <mxCell id="bE4z1JiZct7uWbAWUFVs-213" value="Yes" style="edgeLabel;html=1;align=center;verticalAlign=middle;resizable=0;points=[];" vertex="1" connectable="0" parent="bE4z1JiZct7uWbAWUFVs-209">
          <mxGeometry x="-0.9553" y="4" relative="1" as="geometry">
            <mxPoint x="-1" y="4" as="offset" />
          </mxGeometry>
        </mxCell>
        <mxCell id="bE4z1JiZct7uWbAWUFVs-21" value="Is it a &lt;b&gt;Direct Message&lt;/b&gt;?" style="text;html=1;align=center;verticalAlign=middle;whiteSpace=wrap;rounded=0;" vertex="1" parent="1">
          <mxGeometry x="146" y="-585" width="110" height="30" as="geometry" />
        </mxCell>
        <mxCell id="bE4z1JiZct7uWbAWUFVs-41" style="edgeStyle=orthogonalEdgeStyle;rounded=0;orthogonalLoop=1;jettySize=auto;html=1;entryX=0.5;entryY=0;entryDx=0;entryDy=0;" edge="1" parent="1" target="bE4z1JiZct7uWbAWUFVs-4">
          <mxGeometry relative="1" as="geometry">
            <mxPoint x="200" y="-910" as="sourcePoint" />
            <Array as="points">
              <mxPoint x="200" y="-890" />
              <mxPoint x="200" y="-890" />
            </Array>
          </mxGeometry>
        </mxCell>
        <mxCell id="bE4z1JiZct7uWbAWUFVs-42" value="" style="group" vertex="1" connectable="0" parent="1">
          <mxGeometry x="910" y="-926" width="140" height="80" as="geometry" />
        </mxCell>
        <mxCell id="bE4z1JiZct7uWbAWUFVs-43" value="" style="rhombus;whiteSpace=wrap;html=1;strokeColor=#3caade;" vertex="1" parent="bE4z1JiZct7uWbAWUFVs-42">
          <mxGeometry width="140" height="80" as="geometry" />
        </mxCell>
        <mxCell id="bE4z1JiZct7uWbAWUFVs-44" value="&lt;b&gt;User State&lt;/b&gt;" style="text;html=1;align=center;verticalAlign=middle;whiteSpace=wrap;rounded=0;" vertex="1" parent="bE4z1JiZct7uWbAWUFVs-42">
          <mxGeometry x="16" y="25" width="110" height="30" as="geometry" />
        </mxCell>
        <mxCell id="bE4z1JiZct7uWbAWUFVs-45" value="" style="group" vertex="1" connectable="0" parent="1">
          <mxGeometry x="1080" y="-926" width="140" height="80" as="geometry" />
        </mxCell>
        <mxCell id="bE4z1JiZct7uWbAWUFVs-46" value="" style="rhombus;whiteSpace=wrap;html=1;strokeColor=#1462c2;" vertex="1" parent="bE4z1JiZct7uWbAWUFVs-45">
          <mxGeometry width="140" height="80" as="geometry" />
        </mxCell>
        <mxCell id="bE4z1JiZct7uWbAWUFVs-47" value="&lt;b&gt;Message State&lt;/b&gt;" style="text;html=1;align=center;verticalAlign=middle;whiteSpace=wrap;rounded=0;" vertex="1" parent="bE4z1JiZct7uWbAWUFVs-45">
          <mxGeometry x="16" y="25" width="110" height="30" as="geometry" />
        </mxCell>
        <mxCell id="bE4z1JiZct7uWbAWUFVs-48" value="" style="group" vertex="1" connectable="0" parent="1">
          <mxGeometry x="1210" y="-60" width="140" height="100" as="geometry" />
        </mxCell>
        <mxCell id="bE4z1JiZct7uWbAWUFVs-49" value="" style="rhombus;whiteSpace=wrap;html=1;strokeColor=#3CAADE;" vertex="1" parent="bE4z1JiZct7uWbAWUFVs-48">
          <mxGeometry width="140" height="100" as="geometry" />
        </mxCell>
        <mxCell id="bE4z1JiZct7uWbAWUFVs-50" value="Did the user &lt;b&gt;participate in the thread&lt;/b&gt;?" style="text;html=1;align=center;verticalAlign=middle;whiteSpace=wrap;rounded=0;" vertex="1" parent="bE4z1JiZct7uWbAWUFVs-48">
          <mxGeometry x="22.5" y="31.25" width="95" height="37.5" as="geometry" />
        </mxCell>
        <mxCell id="bE4z1JiZct7uWbAWUFVs-51" value="" style="group" vertex="1" connectable="0" parent="1">
          <mxGeometry x="1410.31" y="-60" width="140" height="100" as="geometry" />
        </mxCell>
        <mxCell id="bE4z1JiZct7uWbAWUFVs-54" value="" style="rhombus;whiteSpace=wrap;html=1;strokeColor=#3CAADE;" vertex="1" parent="bE4z1JiZct7uWbAWUFVs-51">
          <mxGeometry width="140" height="100" as="geometry" />
        </mxCell>
        <mxCell id="bE4z1JiZct7uWbAWUFVs-55" value="Did the user &lt;b&gt;start the thread&lt;/b&gt;?" style="text;html=1;align=center;verticalAlign=middle;whiteSpace=wrap;rounded=0;" vertex="1" parent="bE4z1JiZct7uWbAWUFVs-51">
          <mxGeometry x="23" y="31.25" width="94" height="37.5" as="geometry" />
        </mxCell>
        <mxCell id="bE4z1JiZct7uWbAWUFVs-56" value="" style="group" vertex="1" connectable="0" parent="1">
          <mxGeometry x="750" y="-290" width="140" height="120" as="geometry" />
        </mxCell>
        <mxCell id="bE4z1JiZct7uWbAWUFVs-57" value="" style="rhombus;whiteSpace=wrap;html=1;strokeColor=#1462C2;" vertex="1" parent="bE4z1JiZct7uWbAWUFVs-56">
          <mxGeometry width="140" height="120" as="geometry" />
        </mxCell>
        <mxCell id="bE4z1JiZct7uWbAWUFVs-58" style="edgeStyle=orthogonalEdgeStyle;rounded=0;orthogonalLoop=1;jettySize=auto;html=1;entryX=0;entryY=0.5;entryDx=0;entryDy=0;" edge="1" parent="bE4z1JiZct7uWbAWUFVs-56" target="bE4z1JiZct7uWbAWUFVs-101">
          <mxGeometry relative="1" as="geometry">
            <mxPoint x="320" y="60" as="targetPoint" />
            <mxPoint x="140" y="60" as="sourcePoint" />
          </mxGeometry>
        </mxCell>
        <mxCell id="bE4z1JiZct7uWbAWUFVs-59" value="Yes" style="edgeLabel;html=1;align=center;verticalAlign=middle;resizable=0;points=[];" vertex="1" connectable="0" parent="bE4z1JiZct7uWbAWUFVs-58">
          <mxGeometry x="-0.3533" relative="1" as="geometry">
            <mxPoint as="offset" />
          </mxGeometry>
        </mxCell>
        <mxCell id="bE4z1JiZct7uWbAWUFVs-60" value="Is the message in a &lt;b&gt;thread&lt;/b&gt;?" style="text;html=1;align=center;verticalAlign=middle;whiteSpace=wrap;rounded=0;" vertex="1" parent="bE4z1JiZct7uWbAWUFVs-56">
          <mxGeometry x="33" y="37.5" width="74" height="45" as="geometry" />
        </mxCell>
        <mxCell id="bE4z1JiZct7uWbAWUFVs-61" value="" style="group" vertex="1" connectable="0" parent="1">
          <mxGeometry x="530" y="-290" width="140" height="100" as="geometry" />
        </mxCell>
        <mxCell id="bE4z1JiZct7uWbAWUFVs-62" value="" style="rhombus;whiteSpace=wrap;html=1;strokeColor=#1462C2;" vertex="1" parent="bE4z1JiZct7uWbAWUFVs-61">
          <mxGeometry width="140" height="120" as="geometry" />
        </mxCell>
        <mxCell id="bE4z1JiZct7uWbAWUFVs-63" value="Does the message contain other &lt;b&gt;words that trigger mentions&lt;/b&gt;?" style="text;html=1;align=center;verticalAlign=middle;whiteSpace=wrap;rounded=0;" vertex="1" parent="bE4z1JiZct7uWbAWUFVs-61">
          <mxGeometry x="23" y="40.25" width="94" height="37.5" as="geometry" />
        </mxCell>
        <mxCell id="bE4z1JiZct7uWbAWUFVs-64" value="" style="group" vertex="1" connectable="0" parent="1">
          <mxGeometry x="340" y="-290" width="140" height="120" as="geometry" />
        </mxCell>
        <mxCell id="bE4z1JiZct7uWbAWUFVs-65" value="" style="rhombus;whiteSpace=wrap;html=1;strokeColor=#1462C2;" vertex="1" parent="bE4z1JiZct7uWbAWUFVs-64">
          <mxGeometry width="140" height="120" as="geometry" />
        </mxCell>
        <mxCell id="bE4z1JiZct7uWbAWUFVs-66" value="Does the message contain &lt;b&gt;@here&lt;/b&gt;?" style="text;html=1;align=center;verticalAlign=middle;whiteSpace=wrap;rounded=0;" vertex="1" parent="bE4z1JiZct7uWbAWUFVs-64">
          <mxGeometry x="23" y="37.5" width="94" height="45" as="geometry" />
        </mxCell>
        <mxCell id="bE4z1JiZct7uWbAWUFVs-67" value="" style="group" vertex="1" connectable="0" parent="1">
          <mxGeometry x="130" y="-290" width="140" height="120" as="geometry" />
        </mxCell>
        <mxCell id="bE4z1JiZct7uWbAWUFVs-68" style="edgeStyle=orthogonalEdgeStyle;rounded=0;orthogonalLoop=1;jettySize=auto;html=1;" edge="1" parent="bE4z1JiZct7uWbAWUFVs-67" source="bE4z1JiZct7uWbAWUFVs-70">
          <mxGeometry relative="1" as="geometry">
            <mxPoint x="209.99999999999977" y="60.000000000000014" as="targetPoint" />
          </mxGeometry>
        </mxCell>
        <mxCell id="bE4z1JiZct7uWbAWUFVs-69" value="No" style="edgeLabel;html=1;align=center;verticalAlign=middle;resizable=0;points=[];" vertex="1" connectable="0" parent="bE4z1JiZct7uWbAWUFVs-68">
          <mxGeometry x="-0.1966" y="1" relative="1" as="geometry">
            <mxPoint as="offset" />
          </mxGeometry>
        </mxCell>
        <mxCell id="bE4z1JiZct7uWbAWUFVs-70" value="" style="rhombus;whiteSpace=wrap;html=1;strokeColor=#1462C2;" vertex="1" parent="bE4z1JiZct7uWbAWUFVs-67">
          <mxGeometry width="140" height="120.00000000000003" as="geometry" />
        </mxCell>
        <mxCell id="bE4z1JiZct7uWbAWUFVs-71" value="Does the messgae contain &lt;b&gt;@channel or @all&lt;/b&gt;?" style="text;html=1;align=center;verticalAlign=middle;whiteSpace=wrap;rounded=0;" vertex="1" parent="bE4z1JiZct7uWbAWUFVs-67">
          <mxGeometry x="23" y="37.5" width="94" height="45" as="geometry" />
        </mxCell>
        <mxCell id="bE4z1JiZct7uWbAWUFVs-95" value="" style="group" vertex="1" connectable="0" parent="1">
          <mxGeometry x="130" y="-465" width="150" height="110" as="geometry" />
        </mxCell>
        <mxCell id="bE4z1JiZct7uWbAWUFVs-96" value="" style="rhombus;whiteSpace=wrap;html=1;strokeColor=#047D7E;" vertex="1" parent="bE4z1JiZct7uWbAWUFVs-95">
          <mxGeometry x="-4.081632653061225" y="-10.999999999999998" width="150.00000000000003" height="132.00000000000003" as="geometry" />
        </mxCell>
        <mxCell id="bE4z1JiZct7uWbAWUFVs-97" value="&lt;b&gt;Ignore&lt;/b&gt; mentions for &lt;b&gt;@channel, @here and @all&lt;/b&gt; in this channel?" style="text;html=1;align=center;verticalAlign=middle;whiteSpace=wrap;rounded=0;" vertex="1" parent="bE4z1JiZct7uWbAWUFVs-95">
          <mxGeometry x="28.989795918367346" y="34.375" width="83.85714285714288" height="41.25" as="geometry" />
        </mxCell>
        <mxCell id="bE4z1JiZct7uWbAWUFVs-98" value="" style="group" vertex="1" connectable="0" parent="1">
          <mxGeometry x="1070" y="-270" width="460" height="170" as="geometry" />
        </mxCell>
        <mxCell id="bE4z1JiZct7uWbAWUFVs-99" value="" style="group;rounded=1;glass=0;" vertex="1" connectable="0" parent="bE4z1JiZct7uWbAWUFVs-98">
          <mxGeometry x="90" y="10" width="330" height="60" as="geometry" />
        </mxCell>
        <mxCell id="bE4z1JiZct7uWbAWUFVs-100" style="edgeStyle=orthogonalEdgeStyle;rounded=0;orthogonalLoop=1;jettySize=auto;html=1;" edge="1" parent="bE4z1JiZct7uWbAWUFVs-99" source="bE4z1JiZct7uWbAWUFVs-101">
          <mxGeometry relative="1" as="geometry">
            <mxPoint x="119" y="110" as="targetPoint" />
          </mxGeometry>
        </mxCell>
        <mxCell id="bE4z1JiZct7uWbAWUFVs-101" value="" style="rounded=0;whiteSpace=wrap;html=1;strokeColor=#82b366;fillColor=#00693B;" vertex="1" parent="bE4z1JiZct7uWbAWUFVs-99">
          <mxGeometry y="1.935483870967742" width="237.1875" height="58.064516129032256" as="geometry" />
        </mxCell>
        <mxCell id="bE4z1JiZct7uWbAWUFVs-102" value="What is the users&amp;nbsp;notification&lt;b&gt; &lt;/b&gt;preference for &lt;b&gt;Reply Notifications&lt;/b&gt;?" style="text;html=1;align=center;verticalAlign=middle;whiteSpace=wrap;rounded=0;fontColor=#ffffff;" vertex="1" parent="bE4z1JiZct7uWbAWUFVs-99">
          <mxGeometry x="23.59" y="15.48" width="196.41" height="29.03" as="geometry" />
        </mxCell>
        <mxCell id="bE4z1JiZct7uWbAWUFVs-103" value="" style="group;rounded=1;glass=0;" vertex="1" connectable="0" parent="bE4z1JiZct7uWbAWUFVs-98">
          <mxGeometry y="110" width="140" height="60" as="geometry" />
        </mxCell>
        <mxCell id="bE4z1JiZct7uWbAWUFVs-104" value="" style="group" vertex="1" connectable="0" parent="bE4z1JiZct7uWbAWUFVs-103">
          <mxGeometry x="-30" y="1.935483870967742" width="100.625" height="58.064516129032256" as="geometry" />
        </mxCell>
        <mxCell id="bE4z1JiZct7uWbAWUFVs-106" value="" style="rounded=0;whiteSpace=wrap;html=1;strokeColor=#82b366;fillColor=#00693B;" vertex="1" parent="bE4z1JiZct7uWbAWUFVs-104">
          <mxGeometry width="100.625" height="58.064516129032256" as="geometry" />
        </mxCell>
        <mxCell id="bE4z1JiZct7uWbAWUFVs-107" value="Only if mentioned" style="text;html=1;align=center;verticalAlign=middle;whiteSpace=wrap;rounded=0;fontColor=#ffffff;" vertex="1" parent="bE4z1JiZct7uWbAWUFVs-104">
          <mxGeometry x="10.007878787878788" y="13.544516129032258" width="80.60606060606061" height="29.03" as="geometry" />
        </mxCell>
        <mxCell id="bE4z1JiZct7uWbAWUFVs-108" value="" style="group;rounded=1;glass=0;" vertex="1" connectable="0" parent="bE4z1JiZct7uWbAWUFVs-98">
          <mxGeometry x="130" y="110" width="170" height="60" as="geometry" />
        </mxCell>
        <mxCell id="bE4z1JiZct7uWbAWUFVs-109" value="" style="group" vertex="1" connectable="0" parent="bE4z1JiZct7uWbAWUFVs-108">
          <mxGeometry x="15" y="0.97" width="140" height="58.06" as="geometry" />
        </mxCell>
        <mxCell id="bE4z1JiZct7uWbAWUFVs-110" value="" style="rounded=0;whiteSpace=wrap;html=1;strokeColor=#82b366;fillColor=#00693B;" vertex="1" parent="bE4z1JiZct7uWbAWUFVs-109">
          <mxGeometry width="140" height="58.06" as="geometry" />
        </mxCell>
        <mxCell id="bE4z1JiZct7uWbAWUFVs-111" value="Threads the user starts or participates in" style="text;html=1;align=center;verticalAlign=middle;whiteSpace=wrap;rounded=0;fontColor=#ffffff;" vertex="1" parent="bE4z1JiZct7uWbAWUFVs-109">
          <mxGeometry x="6.079999999999998" y="14.509999999999998" width="127.85" height="29.03" as="geometry" />
        </mxCell>
        <mxCell id="bE4z1JiZct7uWbAWUFVs-112" value="" style="group;rounded=1;glass=0;" vertex="1" connectable="0" parent="bE4z1JiZct7uWbAWUFVs-98">
          <mxGeometry x="360" y="110" width="140" height="60" as="geometry" />
        </mxCell>
        <mxCell id="bE4z1JiZct7uWbAWUFVs-113" value="" style="group" vertex="1" connectable="0" parent="bE4z1JiZct7uWbAWUFVs-112">
          <mxGeometry y="1.935483870967742" width="100.625" height="58.064516129032256" as="geometry" />
        </mxCell>
        <mxCell id="bE4z1JiZct7uWbAWUFVs-114" value="" style="rounded=0;whiteSpace=wrap;html=1;strokeColor=#82b366;fillColor=#00693B;" vertex="1" parent="bE4z1JiZct7uWbAWUFVs-113">
          <mxGeometry width="100.625" height="58.064516129032256" as="geometry" />
        </mxCell>
        <mxCell id="bE4z1JiZct7uWbAWUFVs-115" value="Threads the user starts" style="text;html=1;align=center;verticalAlign=middle;whiteSpace=wrap;rounded=0;fontColor=#ffffff;" vertex="1" parent="bE4z1JiZct7uWbAWUFVs-113">
          <mxGeometry x="10.007878787878788" y="13.544516129032258" width="80.60606060606061" height="29.03" as="geometry" />
        </mxCell>
        <mxCell id="bE4z1JiZct7uWbAWUFVs-116" style="edgeStyle=orthogonalEdgeStyle;rounded=0;orthogonalLoop=1;jettySize=auto;html=1;entryX=0.475;entryY=0.005;entryDx=0;entryDy=0;entryPerimeter=0;" edge="1" parent="bE4z1JiZct7uWbAWUFVs-98" source="bE4z1JiZct7uWbAWUFVs-101" target="bE4z1JiZct7uWbAWUFVs-106">
          <mxGeometry relative="1" as="geometry">
            <mxPoint x="120" y="110" as="targetPoint" />
            <Array as="points">
              <mxPoint x="209" y="80" />
              <mxPoint x="18" y="80" />
            </Array>
          </mxGeometry>
        </mxCell>
        <mxCell id="bE4z1JiZct7uWbAWUFVs-117" style="edgeStyle=orthogonalEdgeStyle;rounded=0;orthogonalLoop=1;jettySize=auto;html=1;entryX=0.5;entryY=0;entryDx=0;entryDy=0;" edge="1" parent="bE4z1JiZct7uWbAWUFVs-98" source="bE4z1JiZct7uWbAWUFVs-101" target="bE4z1JiZct7uWbAWUFVs-114">
          <mxGeometry relative="1" as="geometry">
            <mxPoint x="300" y="110" as="targetPoint" />
            <Array as="points">
              <mxPoint x="209" y="80" />
              <mxPoint x="410" y="80" />
            </Array>
          </mxGeometry>
        </mxCell>
        <mxCell id="bE4z1JiZct7uWbAWUFVs-118" value="" style="group" vertex="1" connectable="0" parent="1">
          <mxGeometry x="340" y="-110" width="140" height="100" as="geometry" />
        </mxCell>
        <mxCell id="bE4z1JiZct7uWbAWUFVs-119" style="edgeStyle=orthogonalEdgeStyle;rounded=0;orthogonalLoop=1;jettySize=auto;html=1;" edge="1" parent="bE4z1JiZct7uWbAWUFVs-118" source="bE4z1JiZct7uWbAWUFVs-121">
          <mxGeometry relative="1" as="geometry">
            <mxPoint x="190" y="-120" as="targetPoint" />
            <Array as="points">
              <mxPoint x="170" y="50" />
              <mxPoint x="170" y="-120" />
              <mxPoint x="190" y="-120" />
            </Array>
          </mxGeometry>
        </mxCell>
        <mxCell id="bE4z1JiZct7uWbAWUFVs-120" value="No" style="edgeLabel;html=1;align=center;verticalAlign=middle;resizable=0;points=[];" vertex="1" connectable="0" parent="bE4z1JiZct7uWbAWUFVs-119">
          <mxGeometry x="-0.8635" y="-1" relative="1" as="geometry">
            <mxPoint as="offset" />
          </mxGeometry>
        </mxCell>
        <mxCell id="bE4z1JiZct7uWbAWUFVs-121" value="" style="rhombus;whiteSpace=wrap;html=1;strokeColor=#3CAADE;" vertex="1" parent="bE4z1JiZct7uWbAWUFVs-118">
          <mxGeometry width="140" height="100" as="geometry" />
        </mxCell>
        <mxCell id="bE4z1JiZct7uWbAWUFVs-122" value="Is the user status &lt;b&gt;online or away&lt;/b&gt;?" style="text;html=1;align=center;verticalAlign=middle;whiteSpace=wrap;rounded=0;" vertex="1" parent="bE4z1JiZct7uWbAWUFVs-118">
          <mxGeometry x="28" y="31.25" width="84" height="37.5" as="geometry" />
        </mxCell>
        <mxCell id="bE4z1JiZct7uWbAWUFVs-123" value="" style="group;rounded=1;glass=0;fillColor=#ffffff;strokeColor=#ffffff;" vertex="1" connectable="0" parent="1">
          <mxGeometry x="510" y="450" width="180" height="62" as="geometry" />
        </mxCell>
        <mxCell id="bE4z1JiZct7uWbAWUFVs-124" value="" style="rounded=0;whiteSpace=wrap;html=1;fontColor=#858585;strokeColor=#666666;fillColor=#327700;" vertex="1" parent="bE4z1JiZct7uWbAWUFVs-123">
          <mxGeometry y="2" width="180" height="60" as="geometry" />
        </mxCell>
        <mxCell id="bE4z1JiZct7uWbAWUFVs-125" value="Trigger an email notification immediately" style="text;html=1;align=center;verticalAlign=middle;whiteSpace=wrap;rounded=0;fontColor=#FFFFFF;fontStyle=1" vertex="1" parent="bE4z1JiZct7uWbAWUFVs-123">
          <mxGeometry x="20" y="17" width="140" height="30" as="geometry" />
        </mxCell>
        <mxCell id="bE4z1JiZct7uWbAWUFVs-126" value="" style="group;rounded=1;glass=0;fillColor=#ffffff;strokeColor=#ffffff;" vertex="1" connectable="0" parent="1">
          <mxGeometry x="-219" y="60" width="180" height="62" as="geometry" />
        </mxCell>
        <mxCell id="bE4z1JiZct7uWbAWUFVs-127" value="" style="rounded=0;whiteSpace=wrap;html=1;fontColor=#858585;strokeColor=#666666;fillColor=#ca2936;" vertex="1" parent="bE4z1JiZct7uWbAWUFVs-126">
          <mxGeometry y="2" width="180" height="60" as="geometry" />
        </mxCell>
        <mxCell id="bE4z1JiZct7uWbAWUFVs-128" value="Do not trigger a desktop notification" style="text;html=1;align=center;verticalAlign=middle;whiteSpace=wrap;rounded=0;fontColor=#FFFFFF;fontStyle=1" vertex="1" parent="bE4z1JiZct7uWbAWUFVs-126">
          <mxGeometry x="27.339999999999996" y="17" width="125.31" height="30" as="geometry" />
        </mxCell>
        <mxCell id="bE4z1JiZct7uWbAWUFVs-129" style="edgeStyle=orthogonalEdgeStyle;rounded=0;orthogonalLoop=1;jettySize=auto;html=1;exitX=0;exitY=0.5;exitDx=0;exitDy=0;entryX=0.5;entryY=0;entryDx=0;entryDy=0;" edge="1" parent="1" source="bE4z1JiZct7uWbAWUFVs-4" target="bE4z1JiZct7uWbAWUFVs-127">
          <mxGeometry relative="1" as="geometry">
            <mxPoint x="-200" y="480" as="targetPoint" />
          </mxGeometry>
        </mxCell>
        <mxCell id="bE4z1JiZct7uWbAWUFVs-130" value="Yes" style="edgeLabel;html=1;align=center;verticalAlign=middle;resizable=0;points=[];" vertex="1" connectable="0" parent="bE4z1JiZct7uWbAWUFVs-129">
          <mxGeometry x="-0.9349" relative="1" as="geometry">
            <mxPoint as="offset" />
          </mxGeometry>
        </mxCell>
        <mxCell id="bE4z1JiZct7uWbAWUFVs-133" style="edgeStyle=orthogonalEdgeStyle;rounded=0;orthogonalLoop=1;jettySize=auto;html=1;entryX=0.5;entryY=0;entryDx=0;entryDy=0;exitX=0.5;exitY=1;exitDx=0;exitDy=0;" edge="1" parent="1" source="bE4z1JiZct7uWbAWUFVs-20" target="bE4z1JiZct7uWbAWUFVs-96">
          <mxGeometry relative="1" as="geometry">
            <mxPoint x="200.28571428571422" y="-500" as="sourcePoint" />
          </mxGeometry>
        </mxCell>
        <mxCell id="bE4z1JiZct7uWbAWUFVs-214" value="No" style="edgeLabel;html=1;align=center;verticalAlign=middle;resizable=0;points=[];" vertex="1" connectable="0" parent="bE4z1JiZct7uWbAWUFVs-133">
          <mxGeometry x="-0.1465" relative="1" as="geometry">
            <mxPoint y="-1" as="offset" />
          </mxGeometry>
        </mxCell>
        <mxCell id="bE4z1JiZct7uWbAWUFVs-136" style="edgeStyle=orthogonalEdgeStyle;rounded=0;orthogonalLoop=1;jettySize=auto;html=1;entryX=0.5;entryY=0;entryDx=0;entryDy=0;" edge="1" parent="1" source="bE4z1JiZct7uWbAWUFVs-96" target="bE4z1JiZct7uWbAWUFVs-70">
          <mxGeometry relative="1" as="geometry" />
        </mxCell>
        <mxCell id="bE4z1JiZct7uWbAWUFVs-137" value="No" style="edgeLabel;html=1;align=center;verticalAlign=middle;resizable=0;points=[];" vertex="1" connectable="0" parent="bE4z1JiZct7uWbAWUFVs-136">
          <mxGeometry x="-0.052" y="-1" relative="1" as="geometry">
            <mxPoint as="offset" />
          </mxGeometry>
        </mxCell>
        <mxCell id="bE4z1JiZct7uWbAWUFVs-138" style="edgeStyle=orthogonalEdgeStyle;rounded=0;orthogonalLoop=1;jettySize=auto;html=1;entryX=0.5;entryY=0;entryDx=0;entryDy=0;" edge="1" parent="1" source="bE4z1JiZct7uWbAWUFVs-96" target="bE4z1JiZct7uWbAWUFVs-62">
          <mxGeometry relative="1" as="geometry">
            <Array as="points">
              <mxPoint x="201" y="-330" />
              <mxPoint x="600" y="-330" />
            </Array>
          </mxGeometry>
        </mxCell>
        <mxCell id="bE4z1JiZct7uWbAWUFVs-139" value="Yes" style="edgeLabel;html=1;align=center;verticalAlign=middle;resizable=0;points=[];" vertex="1" connectable="0" parent="bE4z1JiZct7uWbAWUFVs-138">
          <mxGeometry x="-0.6387" y="1" relative="1" as="geometry">
            <mxPoint as="offset" />
          </mxGeometry>
        </mxCell>
        <mxCell id="bE4z1JiZct7uWbAWUFVs-140" style="edgeStyle=orthogonalEdgeStyle;rounded=0;orthogonalLoop=1;jettySize=auto;html=1;entryX=0;entryY=0.5;entryDx=0;entryDy=0;" edge="1" parent="1" source="bE4z1JiZct7uWbAWUFVs-65" target="bE4z1JiZct7uWbAWUFVs-62">
          <mxGeometry relative="1" as="geometry" />
        </mxCell>
        <mxCell id="bE4z1JiZct7uWbAWUFVs-141" value="No" style="edgeLabel;html=1;align=center;verticalAlign=middle;resizable=0;points=[];" vertex="1" connectable="0" parent="bE4z1JiZct7uWbAWUFVs-140">
          <mxGeometry x="-0.32" y="1" relative="1" as="geometry">
            <mxPoint as="offset" />
          </mxGeometry>
        </mxCell>
        <mxCell id="bE4z1JiZct7uWbAWUFVs-142" style="edgeStyle=orthogonalEdgeStyle;rounded=0;orthogonalLoop=1;jettySize=auto;html=1;entryX=0;entryY=0.5;entryDx=0;entryDy=0;" edge="1" parent="1" source="bE4z1JiZct7uWbAWUFVs-62" target="bE4z1JiZct7uWbAWUFVs-57">
          <mxGeometry relative="1" as="geometry" />
        </mxCell>
        <mxCell id="bE4z1JiZct7uWbAWUFVs-143" value="No" style="edgeLabel;html=1;align=center;verticalAlign=middle;resizable=0;points=[];" vertex="1" connectable="0" parent="bE4z1JiZct7uWbAWUFVs-142">
          <mxGeometry x="-0.2417" relative="1" as="geometry">
            <mxPoint as="offset" />
          </mxGeometry>
        </mxCell>
        <mxCell id="bE4z1JiZct7uWbAWUFVs-148" style="edgeStyle=orthogonalEdgeStyle;rounded=0;orthogonalLoop=1;jettySize=auto;html=1;entryX=1;entryY=0.5;entryDx=0;entryDy=0;" edge="1" parent="1" source="bE4z1JiZct7uWbAWUFVs-54" target="bE4z1JiZct7uWbAWUFVs-127">
          <mxGeometry relative="1" as="geometry">
            <Array as="points">
              <mxPoint x="1480" y="90" />
              <mxPoint x="-39" y="90" />
            </Array>
          </mxGeometry>
        </mxCell>
        <mxCell id="bE4z1JiZct7uWbAWUFVs-149" value="No" style="edgeLabel;html=1;align=center;verticalAlign=middle;resizable=0;points=[];" vertex="1" connectable="0" parent="bE4z1JiZct7uWbAWUFVs-148">
          <mxGeometry x="-0.9836" y="-2" relative="1" as="geometry">
            <mxPoint as="offset" />
          </mxGeometry>
        </mxCell>
        <mxCell id="bE4z1JiZct7uWbAWUFVs-150" style="edgeStyle=orthogonalEdgeStyle;rounded=0;orthogonalLoop=1;jettySize=auto;html=1;entryX=0;entryY=0.5;entryDx=0;entryDy=0;" edge="1" parent="1" source="bE4z1JiZct7uWbAWUFVs-49" target="bE4z1JiZct7uWbAWUFVs-54">
          <mxGeometry relative="1" as="geometry" />
        </mxCell>
        <mxCell id="bE4z1JiZct7uWbAWUFVs-151" value="No" style="edgeLabel;html=1;align=center;verticalAlign=middle;resizable=0;points=[];" vertex="1" connectable="0" parent="bE4z1JiZct7uWbAWUFVs-150">
          <mxGeometry x="-0.3622" y="-1" relative="1" as="geometry">
            <mxPoint as="offset" />
          </mxGeometry>
        </mxCell>
        <mxCell id="bE4z1JiZct7uWbAWUFVs-153" style="edgeStyle=orthogonalEdgeStyle;rounded=0;orthogonalLoop=1;jettySize=auto;html=1;entryX=0.5;entryY=0;entryDx=0;entryDy=0;" edge="1" parent="1" source="bE4z1JiZct7uWbAWUFVs-114" target="bE4z1JiZct7uWbAWUFVs-54">
          <mxGeometry relative="1" as="geometry" />
        </mxCell>
        <mxCell id="bE4z1JiZct7uWbAWUFVs-154" style="edgeStyle=orthogonalEdgeStyle;rounded=0;orthogonalLoop=1;jettySize=auto;html=1;entryX=0.5;entryY=0;entryDx=0;entryDy=0;" edge="1" parent="1" source="bE4z1JiZct7uWbAWUFVs-65" target="bE4z1JiZct7uWbAWUFVs-121">
          <mxGeometry relative="1" as="geometry">
            <mxPoint x="410" y="-130" as="targetPoint" />
          </mxGeometry>
        </mxCell>
        <mxCell id="bE4z1JiZct7uWbAWUFVs-155" value="Yes" style="edgeLabel;html=1;align=center;verticalAlign=middle;resizable=0;points=[];" vertex="1" connectable="0" parent="bE4z1JiZct7uWbAWUFVs-154">
          <mxGeometry x="-0.3983" y="-2" relative="1" as="geometry">
            <mxPoint as="offset" />
          </mxGeometry>
        </mxCell>
        <mxCell id="bE4z1JiZct7uWbAWUFVs-156" style="edgeStyle=orthogonalEdgeStyle;rounded=0;orthogonalLoop=1;jettySize=auto;html=1;entryX=0.5;entryY=0;entryDx=0;entryDy=0;" edge="1" parent="1" source="bE4z1JiZct7uWbAWUFVs-70" target="bE4z1JiZct7uWbAWUFVs-176">
          <mxGeometry relative="1" as="geometry">
            <Array as="points">
              <mxPoint x="200" y="140" />
              <mxPoint x="669" y="140" />
            </Array>
            <mxPoint x="1110" y="460" as="targetPoint" />
          </mxGeometry>
        </mxCell>
        <mxCell id="bE4z1JiZct7uWbAWUFVs-157" value="Yes" style="edgeLabel;html=1;align=center;verticalAlign=middle;resizable=0;points=[];" vertex="1" connectable="0" parent="bE4z1JiZct7uWbAWUFVs-156">
          <mxGeometry x="-0.969" relative="1" as="geometry">
            <mxPoint as="offset" />
          </mxGeometry>
        </mxCell>
        <mxCell id="bE4z1JiZct7uWbAWUFVs-158" style="edgeStyle=orthogonalEdgeStyle;rounded=0;orthogonalLoop=1;jettySize=auto;html=1;entryX=0.5;entryY=0;entryDx=0;entryDy=0;" edge="1" parent="1" source="bE4z1JiZct7uWbAWUFVs-121" target="bE4z1JiZct7uWbAWUFVs-176">
          <mxGeometry relative="1" as="geometry">
            <mxPoint x="1080" y="390" as="targetPoint" />
            <Array as="points">
              <mxPoint x="410" y="140" />
              <mxPoint x="669" y="140" />
            </Array>
          </mxGeometry>
        </mxCell>
        <mxCell id="bE4z1JiZct7uWbAWUFVs-159" value="Yes" style="edgeLabel;html=1;align=center;verticalAlign=middle;resizable=0;points=[];" vertex="1" connectable="0" parent="bE4z1JiZct7uWbAWUFVs-158">
          <mxGeometry x="-0.9579" relative="1" as="geometry">
            <mxPoint as="offset" />
          </mxGeometry>
        </mxCell>
        <mxCell id="bE4z1JiZct7uWbAWUFVs-160" style="edgeStyle=orthogonalEdgeStyle;rounded=0;orthogonalLoop=1;jettySize=auto;html=1;entryX=0.5;entryY=0;entryDx=0;entryDy=0;" edge="1" parent="1" source="bE4z1JiZct7uWbAWUFVs-62" target="bE4z1JiZct7uWbAWUFVs-176">
          <mxGeometry relative="1" as="geometry">
            <Array as="points">
              <mxPoint x="600" y="140" />
              <mxPoint x="669" y="140" />
            </Array>
            <mxPoint x="1230" y="400" as="targetPoint" />
          </mxGeometry>
        </mxCell>
        <mxCell id="bE4z1JiZct7uWbAWUFVs-161" value="Yes&amp;nbsp;" style="edgeLabel;html=1;align=center;verticalAlign=middle;resizable=0;points=[];" vertex="1" connectable="0" parent="bE4z1JiZct7uWbAWUFVs-160">
          <mxGeometry x="-0.9505" y="-1" relative="1" as="geometry">
            <mxPoint as="offset" />
          </mxGeometry>
        </mxCell>
        <mxCell id="bE4z1JiZct7uWbAWUFVs-162" style="edgeStyle=orthogonalEdgeStyle;rounded=0;orthogonalLoop=1;jettySize=auto;html=1;entryX=1;entryY=0.5;entryDx=0;entryDy=0;" edge="1" parent="1" source="bE4z1JiZct7uWbAWUFVs-57" target="bE4z1JiZct7uWbAWUFVs-127">
          <mxGeometry relative="1" as="geometry">
            <Array as="points">
              <mxPoint x="820" y="90" />
              <mxPoint x="-39" y="90" />
            </Array>
          </mxGeometry>
        </mxCell>
        <mxCell id="bE4z1JiZct7uWbAWUFVs-163" value="No&amp;nbsp;" style="edgeLabel;html=1;align=center;verticalAlign=middle;resizable=0;points=[];" vertex="1" connectable="0" parent="bE4z1JiZct7uWbAWUFVs-162">
          <mxGeometry x="-0.9416" y="1" relative="1" as="geometry">
            <mxPoint y="-20" as="offset" />
          </mxGeometry>
        </mxCell>
        <mxCell id="bE4z1JiZct7uWbAWUFVs-166" style="edgeStyle=orthogonalEdgeStyle;rounded=0;orthogonalLoop=1;jettySize=auto;html=1;entryX=0.5;entryY=0;entryDx=0;entryDy=0;" edge="1" parent="1" source="bE4z1JiZct7uWbAWUFVs-49" target="bE4z1JiZct7uWbAWUFVs-176">
          <mxGeometry relative="1" as="geometry">
            <mxPoint x="1541" y="110" as="targetPoint" />
            <Array as="points">
              <mxPoint x="1280" y="140" />
              <mxPoint x="669" y="140" />
            </Array>
          </mxGeometry>
        </mxCell>
        <mxCell id="bE4z1JiZct7uWbAWUFVs-167" value="Yes" style="edgeLabel;html=1;align=center;verticalAlign=middle;resizable=0;points=[];" vertex="1" connectable="0" parent="bE4z1JiZct7uWbAWUFVs-166">
          <mxGeometry x="-0.9295" relative="1" as="geometry">
            <mxPoint as="offset" />
          </mxGeometry>
        </mxCell>
        <mxCell id="bE4z1JiZct7uWbAWUFVs-168" value="&lt;font style=&quot;font-size: 21px;&quot;&gt;LEGEND&lt;/font&gt;" style="text;html=1;align=center;verticalAlign=middle;resizable=0;points=[];autosize=1;strokeColor=none;fillColor=none;" vertex="1" parent="1">
          <mxGeometry x="1095" y="-990" width="110" height="40" as="geometry" />
        </mxCell>
        <mxCell id="bE4z1JiZct7uWbAWUFVs-169" value="" style="endArrow=none;html=1;rounded=0;" edge="1" parent="1">
          <mxGeometry width="50" height="50" relative="1" as="geometry">
            <mxPoint x="1340" y="-950.5600000000001" as="sourcePoint" />
            <mxPoint x="960" y="-950.5600000000001" as="targetPoint" />
            <Array as="points">
              <mxPoint x="1340" y="-950.5600000000001" />
            </Array>
          </mxGeometry>
        </mxCell>
        <mxCell id="bE4z1JiZct7uWbAWUFVs-170" value="" style="group" vertex="1" connectable="0" parent="1">
          <mxGeometry x="1260" y="-910" width="130" height="40" as="geometry" />
        </mxCell>
        <mxCell id="bE4z1JiZct7uWbAWUFVs-171" value="" style="rounded=0;whiteSpace=wrap;html=1;strokeColor=#047d7e;fillColor=#047d7e;" vertex="1" parent="bE4z1JiZct7uWbAWUFVs-170">
          <mxGeometry width="113.75" height="39.99698947391057" as="geometry" />
        </mxCell>
        <mxCell id="bE4z1JiZct7uWbAWUFVs-172" value="User Preference &amp;amp; Value" style="text;html=1;align=center;verticalAlign=middle;whiteSpace=wrap;rounded=0;fontColor=#ffffff;" vertex="1" parent="bE4z1JiZct7uWbAWUFVs-170">
          <mxGeometry x="10" y="9.003010526089383" width="91.87" height="19.35" as="geometry" />
        </mxCell>
        <mxCell id="bE4z1JiZct7uWbAWUFVs-174" value="" style="group;rounded=1;glass=0;" vertex="1" connectable="0" parent="1">
          <mxGeometry x="550" y="230.0000000000001" width="330" height="60" as="geometry" />
        </mxCell>
        <mxCell id="bE4z1JiZct7uWbAWUFVs-175" style="edgeStyle=orthogonalEdgeStyle;rounded=0;orthogonalLoop=1;jettySize=auto;html=1;" edge="1" parent="bE4z1JiZct7uWbAWUFVs-174" source="bE4z1JiZct7uWbAWUFVs-176">
          <mxGeometry relative="1" as="geometry">
            <mxPoint x="50" y="110" as="targetPoint" />
            <Array as="points">
              <mxPoint x="119" y="90" />
              <mxPoint x="50" y="90" />
              <mxPoint x="50" y="110" />
            </Array>
          </mxGeometry>
        </mxCell>
        <mxCell id="bE4z1JiZct7uWbAWUFVs-176" value="" style="rounded=0;whiteSpace=wrap;html=1;strokeColor=#82b366;fillColor=#00693B;" vertex="1" parent="bE4z1JiZct7uWbAWUFVs-174">
          <mxGeometry y="1.935483870967742" width="237.1875" height="58.064516129032256" as="geometry" />
        </mxCell>
        <mxCell id="bE4z1JiZct7uWbAWUFVs-177" value="What is the users&lt;b&gt;&amp;nbsp;&lt;/b&gt;preference for &lt;b&gt;triggering email notifications&lt;/b&gt;?" style="text;html=1;align=center;verticalAlign=middle;whiteSpace=wrap;rounded=0;fontColor=#ffffff;" vertex="1" parent="bE4z1JiZct7uWbAWUFVs-174">
          <mxGeometry x="23.59" y="15.48" width="190" height="29.03" as="geometry" />
        </mxCell>
        <mxCell id="bE4z1JiZct7uWbAWUFVs-178" style="edgeStyle=orthogonalEdgeStyle;rounded=0;orthogonalLoop=1;jettySize=auto;html=1;entryX=0.5;entryY=0;entryDx=0;entryDy=0;" edge="1" parent="bE4z1JiZct7uWbAWUFVs-174" target="bE4z1JiZct7uWbAWUFVs-188">
          <mxGeometry relative="1" as="geometry">
            <Array as="points">
              <mxPoint x="119" y="90" />
              <mxPoint x="367" y="90" />
            </Array>
            <mxPoint x="118.60139860139861" y="70" as="sourcePoint" />
            <mxPoint x="367.00699300699307" y="120" as="targetPoint" />
          </mxGeometry>
        </mxCell>
        <mxCell id="bE4z1JiZct7uWbAWUFVs-195" style="edgeStyle=orthogonalEdgeStyle;rounded=0;orthogonalLoop=1;jettySize=auto;html=1;entryX=0.5;entryY=1;entryDx=0;entryDy=0;" edge="1" parent="1" source="bE4z1JiZct7uWbAWUFVs-179" target="bE4z1JiZct7uWbAWUFVs-127">
          <mxGeometry relative="1" as="geometry" />
        </mxCell>
        <mxCell id="bE4z1JiZct7uWbAWUFVs-179" value="" style="rounded=0;whiteSpace=wrap;html=1;strokeColor=#82b366;fillColor=#00693B;" vertex="1" parent="1">
          <mxGeometry x="390" y="341.9354838709679" width="100.62500000000001" height="58.064516129032256" as="geometry" />
        </mxCell>
        <mxCell id="bE4z1JiZct7uWbAWUFVs-180" value="Never" style="text;html=1;align=center;verticalAlign=middle;whiteSpace=wrap;rounded=0;fontColor=#ffffff;" vertex="1" parent="1">
          <mxGeometry x="400.0078787878788" y="355.48000000000013" width="80.6060606060606" height="29.03" as="geometry" />
        </mxCell>
        <mxCell id="bE4z1JiZct7uWbAWUFVs-181" value="" style="group;rounded=1;glass=0;" vertex="1" connectable="0" parent="1">
          <mxGeometry x="550" y="340.0000000000001" width="140" height="60" as="geometry" />
        </mxCell>
        <mxCell id="bE4z1JiZct7uWbAWUFVs-208" style="edgeStyle=orthogonalEdgeStyle;rounded=0;orthogonalLoop=1;jettySize=auto;html=1;" edge="1" parent="bE4z1JiZct7uWbAWUFVs-181" source="bE4z1JiZct7uWbAWUFVs-182">
          <mxGeometry relative="1" as="geometry">
            <mxPoint x="50.3125" y="109.99999999999989" as="targetPoint" />
          </mxGeometry>
        </mxCell>
        <mxCell id="bE4z1JiZct7uWbAWUFVs-182" value="" style="rounded=0;whiteSpace=wrap;html=1;strokeColor=#82b366;fillColor=#00693B;" vertex="1" parent="bE4z1JiZct7uWbAWUFVs-181">
          <mxGeometry y="1.935483870967742" width="100.625" height="58.064516129032256" as="geometry" />
        </mxCell>
        <mxCell id="bE4z1JiZct7uWbAWUFVs-183" value="Immediately" style="text;html=1;align=center;verticalAlign=middle;whiteSpace=wrap;rounded=0;fontColor=#ffffff;" vertex="1" parent="bE4z1JiZct7uWbAWUFVs-181">
          <mxGeometry x="10.007878787878788" y="15.48" width="80.60606060606061" height="29.03" as="geometry" />
        </mxCell>
        <mxCell id="bE4z1JiZct7uWbAWUFVs-184" value="" style="group;rounded=1;glass=0;" vertex="1" connectable="0" parent="1">
          <mxGeometry x="710" y="340.0000000000001" width="140" height="60" as="geometry" />
        </mxCell>
        <mxCell id="bE4z1JiZct7uWbAWUFVs-185" value="" style="rounded=0;whiteSpace=wrap;html=1;strokeColor=#82b366;fillColor=#00693B;" vertex="1" parent="bE4z1JiZct7uWbAWUFVs-184">
          <mxGeometry x="-4.69" y="1.94" width="110.63" height="58.06" as="geometry" />
        </mxCell>
        <mxCell id="bE4z1JiZct7uWbAWUFVs-186" value="Every 15 Minutes (Batching Enabled)" style="text;html=1;align=center;verticalAlign=middle;whiteSpace=wrap;rounded=0;fontColor=#ffffff;" vertex="1" parent="bE4z1JiZct7uWbAWUFVs-184">
          <mxGeometry x="-4.69" y="15.49" width="110" height="29.03" as="geometry" />
        </mxCell>
        <mxCell id="bE4z1JiZct7uWbAWUFVs-187" value="" style="group" vertex="1" connectable="0" parent="1">
          <mxGeometry x="860" y="340.0000000000001" width="130" height="60" as="geometry" />
        </mxCell>
        <mxCell id="bE4z1JiZct7uWbAWUFVs-188" value="" style="rounded=0;whiteSpace=wrap;html=1;strokeColor=#82b366;fillColor=#00693B;" vertex="1" parent="bE4z1JiZct7uWbAWUFVs-187">
          <mxGeometry width="113.75" height="59.995484210865854" as="geometry" />
        </mxCell>
        <mxCell id="bE4z1JiZct7uWbAWUFVs-190" value="Every Hour (Batching Enabled)" style="text;html=1;align=center;verticalAlign=middle;whiteSpace=wrap;rounded=0;fontColor=#ffffff;" vertex="1" parent="bE4z1JiZct7uWbAWUFVs-187">
          <mxGeometry x="1.879999999999999" y="15.484515789134132" width="110" height="29.03" as="geometry" />
        </mxCell>
        <mxCell id="bE4z1JiZct7uWbAWUFVs-191" style="edgeStyle=orthogonalEdgeStyle;rounded=0;orthogonalLoop=1;jettySize=auto;html=1;entryX=0.5;entryY=0;entryDx=0;entryDy=0;" edge="1" parent="1" source="bE4z1JiZct7uWbAWUFVs-176" target="bE4z1JiZct7uWbAWUFVs-179">
          <mxGeometry relative="1" as="geometry">
            <Array as="points">
              <mxPoint x="669" y="320.0000000000001" />
              <mxPoint x="440" y="320.0000000000001" />
            </Array>
          </mxGeometry>
        </mxCell>
        <mxCell id="bE4z1JiZct7uWbAWUFVs-192" style="edgeStyle=orthogonalEdgeStyle;rounded=0;orthogonalLoop=1;jettySize=auto;html=1;entryX=0.488;entryY=0.004;entryDx=0;entryDy=0;entryPerimeter=0;" edge="1" parent="1" source="bE4z1JiZct7uWbAWUFVs-176" target="bE4z1JiZct7uWbAWUFVs-185">
          <mxGeometry relative="1" as="geometry">
            <mxPoint x="760" y="340.0000000000001" as="targetPoint" />
            <Array as="points">
              <mxPoint x="669" y="320" />
              <mxPoint x="760" y="320" />
              <mxPoint x="760" y="342" />
            </Array>
          </mxGeometry>
        </mxCell>
        <mxCell id="bE4z1JiZct7uWbAWUFVs-197" value="" style="group;rounded=1;glass=0;fillColor=#ffffff;strokeColor=#ffffff;" vertex="1" connectable="0" parent="1">
          <mxGeometry x="810" y="620" width="220" height="62" as="geometry" />
        </mxCell>
        <mxCell id="bE4z1JiZct7uWbAWUFVs-198" value="" style="rounded=0;whiteSpace=wrap;html=1;fontColor=#858585;strokeColor=#666666;fillColor=#327700;" vertex="1" parent="bE4z1JiZct7uWbAWUFVs-197">
          <mxGeometry y="2" width="220" height="60" as="geometry" />
        </mxCell>
        <mxCell id="bE4z1JiZct7uWbAWUFVs-199" value="Batch this message in an email digest to be sent in 1 hour or less" style="text;html=1;align=center;verticalAlign=middle;whiteSpace=wrap;rounded=0;fontColor=#FFFFFF;fontStyle=1" vertex="1" parent="bE4z1JiZct7uWbAWUFVs-197">
          <mxGeometry x="10" y="16" width="200" height="30" as="geometry" />
        </mxCell>
        <mxCell id="bE4z1JiZct7uWbAWUFVs-200" value="" style="group;rounded=1;glass=0;fillColor=#ffffff;strokeColor=#ffffff;" vertex="1" connectable="0" parent="1">
          <mxGeometry x="640" y="540" width="250" height="62" as="geometry" />
        </mxCell>
        <mxCell id="bE4z1JiZct7uWbAWUFVs-201" value="" style="rounded=0;whiteSpace=wrap;html=1;fontColor=#858585;strokeColor=#666666;fillColor=#327700;" vertex="1" parent="bE4z1JiZct7uWbAWUFVs-200">
          <mxGeometry y="2" width="250" height="60" as="geometry" />
        </mxCell>
        <mxCell id="bE4z1JiZct7uWbAWUFVs-202" value="Batch this message in an email digest to be sent in 15 minutes or less" style="text;html=1;align=center;verticalAlign=middle;whiteSpace=wrap;rounded=0;fontColor=#FFFFFF;fontStyle=1" vertex="1" parent="bE4z1JiZct7uWbAWUFVs-200">
          <mxGeometry x="10" y="16" width="230" height="30" as="geometry" />
        </mxCell>
        <mxCell id="bE4z1JiZct7uWbAWUFVs-203" style="edgeStyle=orthogonalEdgeStyle;rounded=0;orthogonalLoop=1;jettySize=auto;html=1;entryX=0.481;entryY=-0.016;entryDx=0;entryDy=0;entryPerimeter=0;" edge="1" parent="1" source="bE4z1JiZct7uWbAWUFVs-185" target="bE4z1JiZct7uWbAWUFVs-201">
          <mxGeometry relative="1" as="geometry" />
        </mxCell>
        <mxCell id="bE4z1JiZct7uWbAWUFVs-204" style="edgeStyle=orthogonalEdgeStyle;rounded=0;orthogonalLoop=1;jettySize=auto;html=1;entryX=0.5;entryY=0;entryDx=0;entryDy=0;" edge="1" parent="1" source="bE4z1JiZct7uWbAWUFVs-188" target="bE4z1JiZct7uWbAWUFVs-198">
          <mxGeometry relative="1" as="geometry">
            <Array as="points">
              <mxPoint x="920" y="450" />
              <mxPoint x="920" y="450" />
            </Array>
          </mxGeometry>
        </mxCell>
        <mxCell id="bE4z1JiZct7uWbAWUFVs-52" style="edgeStyle=orthogonalEdgeStyle;rounded=0;orthogonalLoop=1;jettySize=auto;html=1;entryX=0.5;entryY=0;entryDx=0;entryDy=0;" edge="1" parent="1" source="bE4z1JiZct7uWbAWUFVs-54" target="bE4z1JiZct7uWbAWUFVs-176">
          <mxGeometry relative="1" as="geometry">
            <mxPoint x="1540" y="110" as="targetPoint" />
            <Array as="points">
              <mxPoint x="1590" y="-10" />
              <mxPoint x="1590" y="140" />
              <mxPoint x="669" y="140" />
            </Array>
          </mxGeometry>
        </mxCell>
        <mxCell id="bE4z1JiZct7uWbAWUFVs-53" value="Yes" style="edgeLabel;html=1;align=center;verticalAlign=middle;resizable=0;points=[];" vertex="1" connectable="0" parent="bE4z1JiZct7uWbAWUFVs-52">
          <mxGeometry x="-0.7836" y="-1" relative="1" as="geometry">
            <mxPoint x="-19" y="-91" as="offset" />
          </mxGeometry>
        </mxCell>
        <mxCell id="bE4z1JiZct7uWbAWUFVs-105" style="edgeStyle=orthogonalEdgeStyle;rounded=0;orthogonalLoop=1;jettySize=auto;html=1;entryX=1;entryY=0.5;entryDx=0;entryDy=0;" edge="1" parent="1" source="bE4z1JiZct7uWbAWUFVs-106" target="bE4z1JiZct7uWbAWUFVs-127">
          <mxGeometry relative="1" as="geometry">
            <mxPoint x="50" y="90" as="targetPoint" />
            <Array as="points">
              <mxPoint x="1090" y="90" />
              <mxPoint x="-39" y="90" />
            </Array>
          </mxGeometry>
        </mxCell>
        <mxCell id="bE4z1JiZct7uWbAWUFVs-215" style="edgeStyle=orthogonalEdgeStyle;rounded=0;orthogonalLoop=1;jettySize=auto;html=1;entryX=0.5;entryY=0;entryDx=0;entryDy=0;" edge="1" parent="1" source="bE4z1JiZct7uWbAWUFVs-110" target="bE4z1JiZct7uWbAWUFVs-49">
          <mxGeometry relative="1" as="geometry">
            <Array as="points">
              <mxPoint x="1280" y="-130" />
              <mxPoint x="1280" y="-130" />
            </Array>
          </mxGeometry>
        </mxCell>
      </root>
    </mxGraphModel>
  </diagram>
</mxfile>
